<mxfile host="Electron" modified="2023-12-14T03:20:17.657Z" agent="Mozilla/5.0 (Windows NT 10.0; Win64; x64) AppleWebKit/537.36 (KHTML, like Gecko) draw.io/22.1.2 Chrome/114.0.5735.289 Electron/25.9.4 Safari/537.36" etag="vOIHxnX_qKFNAgjvnA3f" version="22.1.2" type="device" pages="2">
  <diagram name="Page-1" id="j0GhsfOQY6Oh3Uy-TP48">
    <mxGraphModel dx="2182" dy="1289" grid="1" gridSize="10" guides="1" tooltips="1" connect="1" arrows="1" fold="1" page="1" pageScale="1" pageWidth="827" pageHeight="1169" math="0" shadow="0">
      <root>
        <mxCell id="0" />
        <mxCell id="1" parent="0" />
        <mxCell id="SNeHbv7chcBuf6iXUnF4-1" value="" style="group" vertex="1" connectable="0" parent="1">
          <mxGeometry y="30" width="870" height="1055" as="geometry" />
        </mxCell>
        <mxCell id="2FPwwORJsvTQyaysxdch-8" value="" style="group" parent="SNeHbv7chcBuf6iXUnF4-1" vertex="1" connectable="0">
          <mxGeometry width="870" height="1055" as="geometry" />
        </mxCell>
        <mxCell id="2FPwwORJsvTQyaysxdch-20" value="" style="rounded=1;whiteSpace=wrap;html=1;" parent="2FPwwORJsvTQyaysxdch-8" vertex="1">
          <mxGeometry x="650" y="350" width="80" height="30" as="geometry" />
        </mxCell>
        <mxCell id="2FPwwORJsvTQyaysxdch-18" value="" style="rhombus;whiteSpace=wrap;html=1;" parent="2FPwwORJsvTQyaysxdch-8" vertex="1">
          <mxGeometry x="486.5" y="322.5" width="103.5" height="85" as="geometry" />
        </mxCell>
        <mxCell id="2FPwwORJsvTQyaysxdch-17" value="" style="rounded=1;whiteSpace=wrap;html=1;" parent="2FPwwORJsvTQyaysxdch-8" vertex="1">
          <mxGeometry x="120" y="350" width="60" height="30" as="geometry" />
        </mxCell>
        <mxCell id="2FPwwORJsvTQyaysxdch-9" value="" style="rhombus;whiteSpace=wrap;html=1;" parent="2FPwwORJsvTQyaysxdch-8" vertex="1">
          <mxGeometry x="289" y="325" width="80" height="80" as="geometry" />
        </mxCell>
        <mxCell id="2FPwwORJsvTQyaysxdch-7" value="" style="rounded=1;whiteSpace=wrap;html=1;" parent="2FPwwORJsvTQyaysxdch-8" vertex="1">
          <mxGeometry x="270" y="235" width="110" height="40" as="geometry" />
        </mxCell>
        <mxCell id="2FPwwORJsvTQyaysxdch-3" value="" style="rhombus;whiteSpace=wrap;html=1;" parent="2FPwwORJsvTQyaysxdch-8" vertex="1">
          <mxGeometry x="450" y="205" width="90" height="100" as="geometry" />
        </mxCell>
        <mxCell id="KpreH-5Fd-Cnrs5uQN5_-1" value="" style="ellipse;whiteSpace=wrap;html=1;" parent="2FPwwORJsvTQyaysxdch-8" vertex="1">
          <mxGeometry x="350" width="120" height="60" as="geometry" />
        </mxCell>
        <mxCell id="KpreH-5Fd-Cnrs5uQN5_-2" value="Start" style="text;html=1;strokeColor=none;fillColor=none;align=center;verticalAlign=middle;whiteSpace=wrap;rounded=0;" parent="2FPwwORJsvTQyaysxdch-8" vertex="1">
          <mxGeometry x="380" y="15" width="60" height="30" as="geometry" />
        </mxCell>
        <mxCell id="KpreH-5Fd-Cnrs5uQN5_-5" value="A/C Exists?" style="rhombus;whiteSpace=wrap;html=1;" parent="2FPwwORJsvTQyaysxdch-8" vertex="1">
          <mxGeometry x="110" y="225" width="80" height="60" as="geometry" />
        </mxCell>
        <mxCell id="KpreH-5Fd-Cnrs5uQN5_-7" style="edgeStyle=orthogonalEdgeStyle;rounded=0;orthogonalLoop=1;jettySize=auto;html=1;exitX=0.5;exitY=1;exitDx=0;exitDy=0;entryX=0.5;entryY=0;entryDx=0;entryDy=0;" parent="2FPwwORJsvTQyaysxdch-8" source="KpreH-5Fd-Cnrs5uQN5_-5" target="2fVxu5Vz9loOtpiz8Wwu-71" edge="1">
          <mxGeometry relative="1" as="geometry">
            <mxPoint x="151" y="350" as="targetPoint" />
          </mxGeometry>
        </mxCell>
        <mxCell id="KpreH-5Fd-Cnrs5uQN5_-8" value="" style="endArrow=classic;html=1;rounded=0;entryX=0.5;entryY=0;entryDx=0;entryDy=0;" parent="2FPwwORJsvTQyaysxdch-8" edge="1">
          <mxGeometry width="50" height="50" relative="1" as="geometry">
            <mxPoint x="150" y="95" as="sourcePoint" />
            <mxPoint x="150" y="135" as="targetPoint" />
          </mxGeometry>
        </mxCell>
        <mxCell id="KpreH-5Fd-Cnrs5uQN5_-9" value="" style="endArrow=none;html=1;rounded=0;" parent="2FPwwORJsvTQyaysxdch-8" edge="1">
          <mxGeometry width="50" height="50" relative="1" as="geometry">
            <mxPoint x="690" y="95" as="sourcePoint" />
            <mxPoint x="150" y="95" as="targetPoint" />
          </mxGeometry>
        </mxCell>
        <mxCell id="KpreH-5Fd-Cnrs5uQN5_-10" value="" style="endArrow=none;html=1;rounded=0;" parent="2FPwwORJsvTQyaysxdch-8" edge="1">
          <mxGeometry width="50" height="50" relative="1" as="geometry">
            <mxPoint x="484" y="94.5" as="sourcePoint" />
            <mxPoint x="680" y="95" as="targetPoint" />
            <Array as="points">
              <mxPoint x="690" y="95" />
            </Array>
          </mxGeometry>
        </mxCell>
        <mxCell id="KpreH-5Fd-Cnrs5uQN5_-12" value="" style="endArrow=classic;html=1;rounded=0;entryX=0.5;entryY=0;entryDx=0;entryDy=0;" parent="2FPwwORJsvTQyaysxdch-8" edge="1">
          <mxGeometry width="50" height="50" relative="1" as="geometry">
            <mxPoint x="690" y="95" as="sourcePoint" />
            <mxPoint x="690" y="135" as="targetPoint" />
          </mxGeometry>
        </mxCell>
        <mxCell id="KpreH-5Fd-Cnrs5uQN5_-14" value="" style="endArrow=classic;html=1;rounded=0;exitX=0.5;exitY=0;exitDx=0;exitDy=0;exitPerimeter=0;" parent="2FPwwORJsvTQyaysxdch-8" source="2FPwwORJsvTQyaysxdch-3" edge="1">
          <mxGeometry width="50" height="50" relative="1" as="geometry">
            <mxPoint x="485" y="205" as="sourcePoint" />
            <mxPoint x="241" y="255" as="targetPoint" />
            <Array as="points">
              <mxPoint x="495" y="185" />
              <mxPoint x="241" y="185" />
            </Array>
          </mxGeometry>
        </mxCell>
        <mxCell id="KpreH-5Fd-Cnrs5uQN5_-15" value="" style="endArrow=classic;html=1;rounded=0;exitX=0.5;exitY=1;exitDx=0;exitDy=0;entryX=0.5;entryY=0;entryDx=0;entryDy=0;" parent="2FPwwORJsvTQyaysxdch-8" target="KpreH-5Fd-Cnrs5uQN5_-5" edge="1">
          <mxGeometry width="50" height="50" relative="1" as="geometry">
            <mxPoint x="150" y="175" as="sourcePoint" />
            <mxPoint x="410" y="415" as="targetPoint" />
          </mxGeometry>
        </mxCell>
        <mxCell id="2fVxu5Vz9loOtpiz8Wwu-1" value="" style="rounded=1;whiteSpace=wrap;html=1;fontSize=16;" parent="2FPwwORJsvTQyaysxdch-8" vertex="1">
          <mxGeometry x="90" y="135" width="120" height="40" as="geometry" />
        </mxCell>
        <mxCell id="2fVxu5Vz9loOtpiz8Wwu-2" value="" style="rounded=1;whiteSpace=wrap;html=1;fontSize=16;" parent="2FPwwORJsvTQyaysxdch-8" vertex="1">
          <mxGeometry x="630" y="135" width="120" height="40" as="geometry" />
        </mxCell>
        <mxCell id="2fVxu5Vz9loOtpiz8Wwu-7" value="" style="edgeStyle=none;curved=1;rounded=0;orthogonalLoop=1;jettySize=auto;html=1;fontSize=12;startSize=8;endSize=8;entryX=0;entryY=0.5;entryDx=0;entryDy=0;" parent="2FPwwORJsvTQyaysxdch-8" edge="1">
          <mxGeometry relative="1" as="geometry">
            <mxPoint x="190" y="255" as="sourcePoint" />
            <mxPoint x="270" y="255" as="targetPoint" />
          </mxGeometry>
        </mxCell>
        <mxCell id="2fVxu5Vz9loOtpiz8Wwu-6" value="Registration" style="text;html=1;strokeColor=none;fillColor=none;align=center;verticalAlign=middle;whiteSpace=wrap;rounded=0;fontSize=16;" parent="2FPwwORJsvTQyaysxdch-8" vertex="1">
          <mxGeometry x="295" y="250" width="60" height="10" as="geometry" />
        </mxCell>
        <mxCell id="2fVxu5Vz9loOtpiz8Wwu-21" value="" style="endArrow=classic;html=1;rounded=0;fontSize=12;startSize=8;endSize=8;curved=1;entryX=0;entryY=0.5;entryDx=0;entryDy=0;entryPerimeter=0;" parent="2FPwwORJsvTQyaysxdch-8" edge="1">
          <mxGeometry width="50" height="50" relative="1" as="geometry">
            <mxPoint x="150" y="480" as="sourcePoint" />
            <mxPoint x="250" y="480" as="targetPoint" />
          </mxGeometry>
        </mxCell>
        <mxCell id="2fVxu5Vz9loOtpiz8Wwu-22" value="" style="endArrow=classic;html=1;rounded=0;fontSize=12;startSize=8;endSize=8;curved=1;entryX=0;entryY=0.5;entryDx=0;entryDy=0;entryPerimeter=0;" parent="2FPwwORJsvTQyaysxdch-8" edge="1">
          <mxGeometry width="50" height="50" relative="1" as="geometry">
            <mxPoint x="150" y="560" as="sourcePoint" />
            <mxPoint x="250" y="560" as="targetPoint" />
          </mxGeometry>
        </mxCell>
        <mxCell id="2fVxu5Vz9loOtpiz8Wwu-23" value="" style="endArrow=classic;html=1;rounded=0;fontSize=12;startSize=8;endSize=8;curved=1;entryX=0;entryY=0.5;entryDx=0;entryDy=0;" parent="2FPwwORJsvTQyaysxdch-8" target="K75RFybMx4Zan-GYZXgc-29" edge="1">
          <mxGeometry width="50" height="50" relative="1" as="geometry">
            <mxPoint x="150" y="630" as="sourcePoint" />
            <mxPoint x="240" y="630" as="targetPoint" />
          </mxGeometry>
        </mxCell>
        <mxCell id="2fVxu5Vz9loOtpiz8Wwu-33" value="" style="endArrow=classic;html=1;rounded=0;fontSize=12;startSize=8;endSize=8;curved=1;entryX=0.5;entryY=0;entryDx=0;entryDy=0;exitX=0.5;exitY=1;exitDx=0;exitDy=0;" parent="2FPwwORJsvTQyaysxdch-8" source="2fVxu5Vz9loOtpiz8Wwu-2" target="2fVxu5Vz9loOtpiz8Wwu-53" edge="1">
          <mxGeometry width="50" height="50" relative="1" as="geometry">
            <mxPoint x="390" y="275" as="sourcePoint" />
            <mxPoint x="690" y="335" as="targetPoint" />
          </mxGeometry>
        </mxCell>
        <mxCell id="2fVxu5Vz9loOtpiz8Wwu-34" value="Stop" style="ellipse;whiteSpace=wrap;html=1;" parent="2FPwwORJsvTQyaysxdch-8" vertex="1">
          <mxGeometry x="364" y="985" width="120" height="60" as="geometry" />
        </mxCell>
        <mxCell id="2fVxu5Vz9loOtpiz8Wwu-35" value="" style="endArrow=classic;html=1;rounded=0;fontSize=12;startSize=8;endSize=8;curved=1;entryX=0;entryY=0.5;entryDx=0;entryDy=0;" parent="2FPwwORJsvTQyaysxdch-8" target="2fVxu5Vz9loOtpiz8Wwu-34" edge="1">
          <mxGeometry width="50" height="50" relative="1" as="geometry">
            <mxPoint x="150" y="1015" as="sourcePoint" />
            <mxPoint x="440" y="915" as="targetPoint" />
          </mxGeometry>
        </mxCell>
        <mxCell id="2fVxu5Vz9loOtpiz8Wwu-36" value="" style="strokeWidth=2;html=1;shape=mxgraph.flowchart.database;whiteSpace=wrap;fontSize=16;" parent="2FPwwORJsvTQyaysxdch-8" vertex="1">
          <mxGeometry x="361.5" y="865" width="125" height="60" as="geometry" />
        </mxCell>
        <mxCell id="K75RFybMx4Zan-GYZXgc-43" value="" style="edgeStyle=none;curved=1;rounded=0;orthogonalLoop=1;jettySize=auto;html=1;fontSize=12;startSize=8;endSize=8;exitX=0;exitY=0.5;exitDx=0;exitDy=0;entryX=0.5;entryY=1;entryDx=0;entryDy=0;" parent="2FPwwORJsvTQyaysxdch-8" edge="1">
          <mxGeometry relative="1" as="geometry">
            <mxPoint x="650" y="365" as="sourcePoint" />
            <mxPoint x="590" y="364.5000000000001" as="targetPoint" />
          </mxGeometry>
        </mxCell>
        <mxCell id="2fVxu5Vz9loOtpiz8Wwu-49" value="" style="endArrow=classic;html=1;rounded=0;fontSize=12;startSize=8;endSize=8;curved=1;entryX=1;entryY=0.5;entryDx=0;entryDy=0;" parent="2FPwwORJsvTQyaysxdch-8" target="2fVxu5Vz9loOtpiz8Wwu-34" edge="1">
          <mxGeometry width="50" height="50" relative="1" as="geometry">
            <mxPoint x="690" y="1015" as="sourcePoint" />
            <mxPoint x="440" y="1005" as="targetPoint" />
          </mxGeometry>
        </mxCell>
        <mxCell id="2fVxu5Vz9loOtpiz8Wwu-53" value="Login" style="text;html=1;strokeColor=none;fillColor=none;align=center;verticalAlign=middle;whiteSpace=wrap;rounded=0;fontSize=16;" parent="2FPwwORJsvTQyaysxdch-8" vertex="1">
          <mxGeometry x="660" y="348.5" width="60" height="30" as="geometry" />
        </mxCell>
        <mxCell id="2fVxu5Vz9loOtpiz8Wwu-54" value="Yes" style="text;html=1;strokeColor=none;fillColor=none;align=center;verticalAlign=middle;whiteSpace=wrap;rounded=0;fontSize=16;" parent="2FPwwORJsvTQyaysxdch-8" vertex="1">
          <mxGeometry x="600" y="402.5" width="30" height="15" as="geometry" />
        </mxCell>
        <mxCell id="2fVxu5Vz9loOtpiz8Wwu-55" value="No" style="text;html=1;strokeColor=none;fillColor=none;align=center;verticalAlign=middle;whiteSpace=wrap;rounded=0;fontSize=16;" parent="2FPwwORJsvTQyaysxdch-8" vertex="1">
          <mxGeometry x="604.75" y="295" width="25.25" height="15" as="geometry" />
        </mxCell>
        <mxCell id="2fVxu5Vz9loOtpiz8Wwu-56" value="&lt;p style=&quot;line-height: 40%; font-size: 15px;&quot;&gt;&lt;font style=&quot;font-size: 15px;&quot;&gt;Login&lt;/font&gt;&lt;/p&gt;&lt;p style=&quot;line-height: 40%; font-size: 15px;&quot;&gt;&lt;font style=&quot;font-size: 15px;&quot;&gt;&lt;font style=&quot;font-size: 15px;&quot;&gt;Validation&lt;/font&gt;&lt;br&gt;&lt;/font&gt;&lt;/p&gt;" style="text;html=1;strokeColor=none;fillColor=none;align=center;verticalAlign=middle;whiteSpace=wrap;rounded=0;fontSize=16;" parent="2FPwwORJsvTQyaysxdch-8" vertex="1">
          <mxGeometry x="491.75" y="362" width="93" as="geometry" />
        </mxCell>
        <mxCell id="2fVxu5Vz9loOtpiz8Wwu-58" value="Admin" style="text;html=1;strokeColor=none;fillColor=none;align=center;verticalAlign=middle;whiteSpace=wrap;rounded=0;fontSize=16;" parent="2FPwwORJsvTQyaysxdch-8" vertex="1">
          <mxGeometry x="660" y="140" width="60" height="30" as="geometry" />
        </mxCell>
        <mxCell id="2fVxu5Vz9loOtpiz8Wwu-59" value="Users" style="text;html=1;strokeColor=none;fillColor=none;align=center;verticalAlign=middle;whiteSpace=wrap;rounded=0;fontSize=16;" parent="2FPwwORJsvTQyaysxdch-8" vertex="1">
          <mxGeometry x="120" y="140" width="60" height="30" as="geometry" />
        </mxCell>
        <mxCell id="2fVxu5Vz9loOtpiz8Wwu-60" value="No" style="text;html=1;strokeColor=none;fillColor=none;align=center;verticalAlign=middle;whiteSpace=wrap;rounded=0;fontSize=16;" parent="2FPwwORJsvTQyaysxdch-8" vertex="1">
          <mxGeometry x="435" y="160" width="30" height="20" as="geometry" />
        </mxCell>
        <mxCell id="2fVxu5Vz9loOtpiz8Wwu-62" value="No" style="text;html=1;strokeColor=none;fillColor=none;align=center;verticalAlign=middle;whiteSpace=wrap;rounded=0;fontSize=16;" parent="2FPwwORJsvTQyaysxdch-8" vertex="1">
          <mxGeometry x="199" y="235" width="30" height="15" as="geometry" />
        </mxCell>
        <mxCell id="2fVxu5Vz9loOtpiz8Wwu-71" value="Login" style="text;html=1;strokeColor=none;fillColor=none;align=center;verticalAlign=middle;whiteSpace=wrap;rounded=0;fontSize=16;" parent="2FPwwORJsvTQyaysxdch-8" vertex="1">
          <mxGeometry x="120" y="350" width="60" height="30" as="geometry" />
        </mxCell>
        <mxCell id="2fVxu5Vz9loOtpiz8Wwu-74" value="&lt;p style=&quot;line-height: 120%; font-size: 10px;&quot;&gt;Registration&amp;nbsp;&lt;br&gt;Validation&lt;/p&gt;" style="text;html=1;strokeColor=none;fillColor=none;align=center;verticalAlign=middle;whiteSpace=wrap;rounded=0;fontSize=16;" parent="2FPwwORJsvTQyaysxdch-8" vertex="1">
          <mxGeometry x="465" y="232.5" width="60" height="35" as="geometry" />
        </mxCell>
        <mxCell id="2fVxu5Vz9loOtpiz8Wwu-79" value="&lt;p style=&quot;line-height: 30%; font-size: 13px;&quot;&gt;&lt;font style=&quot;font-size: 13px;&quot;&gt;Login&lt;/font&gt;&lt;/p&gt;&lt;p style=&quot;line-height: 30%; font-size: 13px;&quot;&gt;&lt;font style=&quot;font-size: 13px;&quot;&gt;Validation&amp;nbsp;&lt;br&gt;&lt;/font&gt;&lt;/p&gt;" style="text;html=1;strokeColor=none;fillColor=none;align=center;verticalAlign=middle;whiteSpace=wrap;rounded=0;fontSize=16;" parent="2FPwwORJsvTQyaysxdch-8" vertex="1">
          <mxGeometry x="297.5" y="347.5" width="65" height="30" as="geometry" />
        </mxCell>
        <mxCell id="2fVxu5Vz9loOtpiz8Wwu-81" value="" style="endArrow=classic;html=1;rounded=0;fontSize=12;startSize=8;endSize=8;curved=1;" parent="2FPwwORJsvTQyaysxdch-8" source="2fVxu5Vz9loOtpiz8Wwu-80" edge="1">
          <mxGeometry width="50" height="50" relative="1" as="geometry">
            <mxPoint x="690" y="475" as="sourcePoint" />
            <mxPoint x="600" y="475" as="targetPoint" />
          </mxGeometry>
        </mxCell>
        <mxCell id="2fVxu5Vz9loOtpiz8Wwu-82" value="Update User Complaints" style="rounded=1;whiteSpace=wrap;html=1;fontSize=16;" parent="2FPwwORJsvTQyaysxdch-8" vertex="1">
          <mxGeometry x="500" y="535" width="110" height="40" as="geometry" />
        </mxCell>
        <mxCell id="2fVxu5Vz9loOtpiz8Wwu-83" value="" style="endArrow=classic;html=1;rounded=0;fontSize=12;startSize=8;endSize=8;curved=1;" parent="2FPwwORJsvTQyaysxdch-8" edge="1">
          <mxGeometry width="50" height="50" relative="1" as="geometry">
            <mxPoint x="690" y="554.5" as="sourcePoint" />
            <mxPoint x="610" y="555" as="targetPoint" />
          </mxGeometry>
        </mxCell>
        <mxCell id="2fVxu5Vz9loOtpiz8Wwu-84" value="" style="endArrow=classic;html=1;rounded=0;fontSize=12;startSize=8;endSize=8;curved=1;" parent="2FPwwORJsvTQyaysxdch-8" target="2fVxu5Vz9loOtpiz8Wwu-80" edge="1">
          <mxGeometry width="50" height="50" relative="1" as="geometry">
            <mxPoint x="690" y="475" as="sourcePoint" />
            <mxPoint x="600" y="475" as="targetPoint" />
          </mxGeometry>
        </mxCell>
        <mxCell id="2fVxu5Vz9loOtpiz8Wwu-80" value="Manage User&lt;br&gt;Details" style="rounded=1;whiteSpace=wrap;html=1;fontSize=16;" parent="2FPwwORJsvTQyaysxdch-8" vertex="1">
          <mxGeometry x="500" y="455" width="110" height="40" as="geometry" />
        </mxCell>
        <mxCell id="2fVxu5Vz9loOtpiz8Wwu-86" style="edgeStyle=none;curved=1;rounded=0;orthogonalLoop=1;jettySize=auto;html=1;exitX=0;exitY=0.5;exitDx=0;exitDy=0;fontSize=12;startSize=8;endSize=8;" parent="2FPwwORJsvTQyaysxdch-8" source="2fVxu5Vz9loOtpiz8Wwu-82" target="2fVxu5Vz9loOtpiz8Wwu-82" edge="1">
          <mxGeometry relative="1" as="geometry" />
        </mxCell>
        <mxCell id="2fVxu5Vz9loOtpiz8Wwu-88" value="" style="endArrow=classic;html=1;rounded=0;exitX=0;exitY=0.5;exitDx=0;exitDy=0;" parent="2FPwwORJsvTQyaysxdch-8" source="2fVxu5Vz9loOtpiz8Wwu-80" edge="1">
          <mxGeometry width="50" height="50" relative="1" as="geometry">
            <mxPoint x="900" y="1055" as="sourcePoint" />
            <mxPoint x="450" y="865" as="targetPoint" />
            <Array as="points">
              <mxPoint x="450" y="475" />
            </Array>
          </mxGeometry>
        </mxCell>
        <mxCell id="2fVxu5Vz9loOtpiz8Wwu-89" value="DataBase" style="text;html=1;strokeColor=none;fillColor=none;align=center;verticalAlign=middle;whiteSpace=wrap;rounded=0;fontSize=16;" parent="2FPwwORJsvTQyaysxdch-8" vertex="1">
          <mxGeometry x="390" y="885" width="60" height="30" as="geometry" />
        </mxCell>
        <mxCell id="2fVxu5Vz9loOtpiz8Wwu-91" value="Remove User Complaints&amp;nbsp;" style="rounded=1;whiteSpace=wrap;html=1;fontSize=16;" parent="2FPwwORJsvTQyaysxdch-8" vertex="1">
          <mxGeometry x="500" y="615" width="110" height="40" as="geometry" />
        </mxCell>
        <mxCell id="2fVxu5Vz9loOtpiz8Wwu-92" value="" style="endArrow=classic;html=1;rounded=0;fontSize=12;startSize=8;endSize=8;curved=1;entryX=1;entryY=0.5;entryDx=0;entryDy=0;" parent="2FPwwORJsvTQyaysxdch-8" target="2fVxu5Vz9loOtpiz8Wwu-91" edge="1">
          <mxGeometry width="50" height="50" relative="1" as="geometry">
            <mxPoint x="690" y="635" as="sourcePoint" />
            <mxPoint x="620" y="565" as="targetPoint" />
          </mxGeometry>
        </mxCell>
        <mxCell id="2fVxu5Vz9loOtpiz8Wwu-93" value="" style="endArrow=classic;html=1;rounded=0;fontSize=12;startSize=8;endSize=8;curved=1;exitX=0;exitY=0.5;exitDx=0;exitDy=0;" parent="2FPwwORJsvTQyaysxdch-8" source="2fVxu5Vz9loOtpiz8Wwu-91" edge="1">
          <mxGeometry width="50" height="50" relative="1" as="geometry">
            <mxPoint x="510" y="565" as="sourcePoint" />
            <mxPoint x="450" y="635" as="targetPoint" />
          </mxGeometry>
        </mxCell>
        <mxCell id="2fVxu5Vz9loOtpiz8Wwu-97" value="Yes" style="text;html=1;strokeColor=none;fillColor=none;align=center;verticalAlign=middle;whiteSpace=wrap;rounded=0;fontSize=16;" parent="2FPwwORJsvTQyaysxdch-8" vertex="1">
          <mxGeometry x="405" y="280" width="60" height="30" as="geometry" />
        </mxCell>
        <mxCell id="2fVxu5Vz9loOtpiz8Wwu-98" value="Yes" style="text;html=1;strokeColor=none;fillColor=none;align=center;verticalAlign=middle;whiteSpace=wrap;rounded=0;fontSize=16;" parent="2FPwwORJsvTQyaysxdch-8" vertex="1">
          <mxGeometry x="80" y="275" width="60" height="30" as="geometry" />
        </mxCell>
        <mxCell id="K75RFybMx4Zan-GYZXgc-2" value="" style="endArrow=classic;html=1;rounded=0;fontSize=12;startSize=8;endSize=8;curved=1;exitX=0;exitY=0.5;exitDx=0;exitDy=0;entryX=1;entryY=0.5;entryDx=0;entryDy=0;" parent="2FPwwORJsvTQyaysxdch-8" edge="1">
          <mxGeometry width="50" height="50" relative="1" as="geometry">
            <mxPoint x="690" y="704.5" as="sourcePoint" />
            <mxPoint x="610" y="705" as="targetPoint" />
          </mxGeometry>
        </mxCell>
        <mxCell id="K75RFybMx4Zan-GYZXgc-8" value="Logout" style="rhombus;whiteSpace=wrap;html=1;fontSize=16;" parent="2FPwwORJsvTQyaysxdch-8" vertex="1">
          <mxGeometry x="110" y="975" width="80" height="80" as="geometry" />
        </mxCell>
        <mxCell id="K75RFybMx4Zan-GYZXgc-10" value="" style="endArrow=classic;html=1;rounded=0;fontSize=12;startSize=8;endSize=8;edgeStyle=none;curved=1;entryX=0.5;entryY=0;entryDx=0;entryDy=0;" parent="2FPwwORJsvTQyaysxdch-8" target="K75RFybMx4Zan-GYZXgc-8" edge="1">
          <mxGeometry width="50" height="50" relative="1" as="geometry">
            <mxPoint x="151" y="420" as="sourcePoint" />
            <mxPoint x="150" y="695" as="targetPoint" />
            <Array as="points">
              <mxPoint x="150" y="625" />
            </Array>
          </mxGeometry>
        </mxCell>
        <mxCell id="K75RFybMx4Zan-GYZXgc-12" value="Logout" style="rhombus;whiteSpace=wrap;html=1;fontSize=16;" parent="2FPwwORJsvTQyaysxdch-8" vertex="1">
          <mxGeometry x="650" y="975" width="80" height="80" as="geometry" />
        </mxCell>
        <mxCell id="K75RFybMx4Zan-GYZXgc-13" value="" style="endArrow=classic;html=1;rounded=0;fontSize=12;startSize=8;endSize=8;edgeStyle=none;curved=1;entryX=0.5;entryY=0;entryDx=0;entryDy=0;" parent="2FPwwORJsvTQyaysxdch-8" target="K75RFybMx4Zan-GYZXgc-12" edge="1">
          <mxGeometry width="50" height="50" relative="1" as="geometry">
            <mxPoint x="691" y="420" as="sourcePoint" />
            <mxPoint x="580" y="855" as="targetPoint" />
          </mxGeometry>
        </mxCell>
        <mxCell id="K75RFybMx4Zan-GYZXgc-19" value="" style="endArrow=classic;html=1;rounded=0;" parent="2FPwwORJsvTQyaysxdch-8" edge="1">
          <mxGeometry width="50" height="50" relative="1" as="geometry">
            <mxPoint x="730" y="1015" as="sourcePoint" />
            <mxPoint x="690" y="435" as="targetPoint" />
            <Array as="points">
              <mxPoint x="730" y="1015" />
              <mxPoint x="780" y="1015" />
              <mxPoint x="780" y="755" />
              <mxPoint x="780" y="495" />
              <mxPoint x="780" y="435" />
              <mxPoint x="720" y="435" />
            </Array>
          </mxGeometry>
        </mxCell>
        <mxCell id="K75RFybMx4Zan-GYZXgc-21" value="" style="endArrow=classic;html=1;rounded=0;" parent="2FPwwORJsvTQyaysxdch-8" edge="1">
          <mxGeometry width="50" height="50" relative="1" as="geometry">
            <mxPoint x="90" y="1015" as="sourcePoint" />
            <mxPoint x="150" y="435" as="targetPoint" />
            <Array as="points">
              <mxPoint x="110" y="1015" />
              <mxPoint x="80" y="1015" />
              <mxPoint x="80" y="985" />
              <mxPoint x="80" y="955" />
              <mxPoint x="80" y="885" />
              <mxPoint x="80" y="755" />
              <mxPoint x="80" y="505" />
              <mxPoint x="80" y="435" />
            </Array>
          </mxGeometry>
        </mxCell>
        <mxCell id="K75RFybMx4Zan-GYZXgc-22" value="No" style="text;html=1;strokeColor=none;fillColor=none;align=center;verticalAlign=middle;whiteSpace=wrap;rounded=0;fontSize=16;" parent="2FPwwORJsvTQyaysxdch-8" vertex="1">
          <mxGeometry x="20" y="965" width="60" height="30" as="geometry" />
        </mxCell>
        <mxCell id="K75RFybMx4Zan-GYZXgc-24" value="No" style="text;html=1;strokeColor=none;fillColor=none;align=center;verticalAlign=middle;whiteSpace=wrap;rounded=0;fontSize=16;" parent="2FPwwORJsvTQyaysxdch-8" vertex="1">
          <mxGeometry x="781" y="900" width="60" height="30" as="geometry" />
        </mxCell>
        <mxCell id="K75RFybMx4Zan-GYZXgc-26" value="Yes" style="text;html=1;strokeColor=none;fillColor=none;align=center;verticalAlign=middle;whiteSpace=wrap;rounded=0;fontSize=16;" parent="2FPwwORJsvTQyaysxdch-8" vertex="1">
          <mxGeometry x="250" y="975" width="60" height="30" as="geometry" />
        </mxCell>
        <mxCell id="K75RFybMx4Zan-GYZXgc-27" value="Yes" style="text;html=1;strokeColor=none;fillColor=none;align=center;verticalAlign=middle;whiteSpace=wrap;rounded=0;fontSize=16;" parent="2FPwwORJsvTQyaysxdch-8" vertex="1">
          <mxGeometry x="550" y="975" width="60" height="30" as="geometry" />
        </mxCell>
        <mxCell id="K75RFybMx4Zan-GYZXgc-28" value="View Their Cases" style="rounded=1;whiteSpace=wrap;html=1;fontSize=16;" parent="2FPwwORJsvTQyaysxdch-8" vertex="1">
          <mxGeometry x="250" y="465" width="120" height="40" as="geometry" />
        </mxCell>
        <mxCell id="K75RFybMx4Zan-GYZXgc-29" value="Search Their Complaints" style="rounded=1;whiteSpace=wrap;html=1;fontSize=16;" parent="2FPwwORJsvTQyaysxdch-8" vertex="1">
          <mxGeometry x="249" y="605" width="120" height="50" as="geometry" />
        </mxCell>
        <mxCell id="K75RFybMx4Zan-GYZXgc-31" value="Search Complaints" style="rounded=1;whiteSpace=wrap;html=1;fontSize=16;" parent="2FPwwORJsvTQyaysxdch-8" vertex="1">
          <mxGeometry x="500" y="665" width="110" height="60" as="geometry" />
        </mxCell>
        <mxCell id="K75RFybMx4Zan-GYZXgc-32" value="Add Complaints" style="rounded=1;whiteSpace=wrap;html=1;fontSize=16;" parent="2FPwwORJsvTQyaysxdch-8" vertex="1">
          <mxGeometry x="249" y="535" width="120" height="40" as="geometry" />
        </mxCell>
        <mxCell id="K75RFybMx4Zan-GYZXgc-36" value="" style="endArrow=classic;html=1;rounded=0;fontSize=12;startSize=8;endSize=8;edgeStyle=none;curved=1;exitX=0.5;exitY=1;exitDx=0;exitDy=0;" parent="2FPwwORJsvTQyaysxdch-8" source="KpreH-5Fd-Cnrs5uQN5_-1" edge="1">
          <mxGeometry width="50" height="50" relative="1" as="geometry">
            <mxPoint x="540" y="305" as="sourcePoint" />
            <mxPoint x="410" y="95" as="targetPoint" />
          </mxGeometry>
        </mxCell>
        <mxCell id="K75RFybMx4Zan-GYZXgc-38" value="" style="endArrow=classic;html=1;rounded=0;fontSize=12;startSize=8;endSize=8;edgeStyle=none;curved=1;exitX=1;exitY=0.5;exitDx=0;exitDy=0;entryX=0;entryY=0.5;entryDx=0;entryDy=0;" parent="2FPwwORJsvTQyaysxdch-8" target="2FPwwORJsvTQyaysxdch-3" edge="1">
          <mxGeometry width="50" height="50" relative="1" as="geometry">
            <mxPoint x="380" y="255" as="sourcePoint" />
            <mxPoint x="465" y="255" as="targetPoint" />
          </mxGeometry>
        </mxCell>
        <mxCell id="K75RFybMx4Zan-GYZXgc-40" value="" style="endArrow=classic;html=1;rounded=0;fontSize=12;startSize=8;endSize=8;edgeStyle=none;curved=1;entryX=0;entryY=0.5;entryDx=0;entryDy=0;" parent="2FPwwORJsvTQyaysxdch-8" target="2FPwwORJsvTQyaysxdch-9" edge="1">
          <mxGeometry width="50" height="50" relative="1" as="geometry">
            <mxPoint x="181" y="365" as="sourcePoint" />
            <mxPoint x="241" y="365" as="targetPoint" />
          </mxGeometry>
        </mxCell>
        <mxCell id="2FPwwORJsvTQyaysxdch-6" value="" style="endArrow=classic;html=1;rounded=0;exitX=0.5;exitY=1;exitDx=0;exitDy=0;" parent="2FPwwORJsvTQyaysxdch-8" source="2FPwwORJsvTQyaysxdch-3" edge="1">
          <mxGeometry width="50" height="50" relative="1" as="geometry">
            <mxPoint x="290" y="365" as="sourcePoint" />
            <mxPoint x="150" y="305" as="targetPoint" />
          </mxGeometry>
        </mxCell>
        <mxCell id="2FPwwORJsvTQyaysxdch-14" value="NO" style="text;html=1;strokeColor=none;fillColor=none;align=center;verticalAlign=middle;whiteSpace=wrap;rounded=0;" parent="2FPwwORJsvTQyaysxdch-8" vertex="1">
          <mxGeometry x="270" y="318.5" width="30" height="30" as="geometry" />
        </mxCell>
        <mxCell id="2FPwwORJsvTQyaysxdch-16" value="YES" style="text;html=1;strokeColor=none;fillColor=none;align=center;verticalAlign=middle;whiteSpace=wrap;rounded=0;" parent="2FPwwORJsvTQyaysxdch-8" vertex="1">
          <mxGeometry x="229" y="402.5" width="41" height="15" as="geometry" />
        </mxCell>
        <mxCell id="2FPwwORJsvTQyaysxdch-15" value="" style="endArrow=classic;html=1;rounded=0;exitX=0.5;exitY=1;exitDx=0;exitDy=0;" parent="2FPwwORJsvTQyaysxdch-8" source="2FPwwORJsvTQyaysxdch-9" edge="1">
          <mxGeometry width="50" height="50" relative="1" as="geometry">
            <mxPoint x="319" y="455" as="sourcePoint" />
            <mxPoint x="151" y="420" as="targetPoint" />
            <Array as="points">
              <mxPoint x="329" y="420" />
            </Array>
          </mxGeometry>
        </mxCell>
        <mxCell id="2FPwwORJsvTQyaysxdch-13" value="" style="endArrow=classic;html=1;rounded=0;exitX=0.5;exitY=0;exitDx=0;exitDy=0;" parent="SNeHbv7chcBuf6iXUnF4-1" source="2FPwwORJsvTQyaysxdch-9" edge="1">
          <mxGeometry width="50" height="50" relative="1" as="geometry">
            <mxPoint x="311" y="430" as="sourcePoint" />
            <mxPoint x="151" y="325" as="targetPoint" />
            <Array as="points">
              <mxPoint x="241" y="325" />
            </Array>
          </mxGeometry>
        </mxCell>
        <mxCell id="2FPwwORJsvTQyaysxdch-22" value="" style="endArrow=classic;html=1;rounded=0;exitX=0.5;exitY=1;exitDx=0;exitDy=0;" parent="SNeHbv7chcBuf6iXUnF4-1" source="2FPwwORJsvTQyaysxdch-18" edge="1">
          <mxGeometry width="50" height="50" relative="1" as="geometry">
            <mxPoint x="621" y="450" as="sourcePoint" />
            <mxPoint x="691" y="420" as="targetPoint" />
            <Array as="points">
              <mxPoint x="538" y="420" />
            </Array>
          </mxGeometry>
        </mxCell>
        <mxCell id="2FPwwORJsvTQyaysxdch-26" value="" style="endArrow=classic;html=1;rounded=0;exitX=0.5;exitY=0;exitDx=0;exitDy=0;" parent="SNeHbv7chcBuf6iXUnF4-1" source="2FPwwORJsvTQyaysxdch-18" edge="1">
          <mxGeometry width="50" height="50" relative="1" as="geometry">
            <mxPoint x="641" y="370" as="sourcePoint" />
            <mxPoint x="691" y="310" as="targetPoint" />
            <Array as="points">
              <mxPoint x="538" y="310" />
            </Array>
          </mxGeometry>
        </mxCell>
        <mxCell id="2FPwwORJsvTQyaysxdch-28" value="" style="endArrow=classic;startArrow=classic;html=1;rounded=0;entryX=0;entryY=0.5;entryDx=0;entryDy=0;" parent="SNeHbv7chcBuf6iXUnF4-1" target="K75RFybMx4Zan-GYZXgc-31" edge="1">
          <mxGeometry width="50" height="50" relative="1" as="geometry">
            <mxPoint x="451" y="695" as="sourcePoint" />
            <mxPoint x="501" y="700" as="targetPoint" />
          </mxGeometry>
        </mxCell>
        <mxCell id="2FPwwORJsvTQyaysxdch-29" value="" style="endArrow=classic;startArrow=classic;html=1;rounded=0;" parent="SNeHbv7chcBuf6iXUnF4-1" edge="1">
          <mxGeometry width="50" height="50" relative="1" as="geometry">
            <mxPoint x="451" y="560" as="sourcePoint" />
            <mxPoint x="501" y="560" as="targetPoint" />
          </mxGeometry>
        </mxCell>
        <mxCell id="2FPwwORJsvTQyaysxdch-32" value="" style="endArrow=classic;startArrow=classic;html=1;rounded=0;exitX=1;exitY=0.5;exitDx=0;exitDy=0;" parent="SNeHbv7chcBuf6iXUnF4-1" edge="1">
          <mxGeometry width="50" height="50" relative="1" as="geometry">
            <mxPoint x="369" y="630" as="sourcePoint" />
            <mxPoint x="411" y="630" as="targetPoint" />
          </mxGeometry>
        </mxCell>
        <mxCell id="2FPwwORJsvTQyaysxdch-34" value="" style="edgeStyle=orthogonalEdgeStyle;rounded=0;orthogonalLoop=1;jettySize=auto;html=1;exitX=1;exitY=0.5;exitDx=0;exitDy=0;" parent="SNeHbv7chcBuf6iXUnF4-1" source="K75RFybMx4Zan-GYZXgc-32" edge="1">
          <mxGeometry relative="1" as="geometry">
            <mxPoint x="372" y="555" as="sourcePoint" />
            <mxPoint x="411" y="555" as="targetPoint" />
          </mxGeometry>
        </mxCell>
        <mxCell id="2FPwwORJsvTQyaysxdch-36" value="" style="endArrow=classic;startArrow=classic;html=1;rounded=0;exitX=0.394;exitY=0.027;exitDx=0;exitDy=0;exitPerimeter=0;" parent="SNeHbv7chcBuf6iXUnF4-1" source="2fVxu5Vz9loOtpiz8Wwu-36" edge="1">
          <mxGeometry width="50" height="50" relative="1" as="geometry">
            <mxPoint x="411" y="860" as="sourcePoint" />
            <mxPoint x="371" y="480" as="targetPoint" />
            <Array as="points">
              <mxPoint x="411" y="480" />
            </Array>
          </mxGeometry>
        </mxCell>
      </root>
    </mxGraphModel>
  </diagram>
  <diagram id="xQh0zEsPkzrSBan4g5Af" name="Page-2">
    <mxGraphModel dx="808" dy="531" grid="1" gridSize="10" guides="1" tooltips="1" connect="1" arrows="1" fold="1" page="0" pageScale="1" pageWidth="827" pageHeight="1169" math="0" shadow="0">
      <root>
        <mxCell id="0" />
        <mxCell id="1" parent="0" />
      </root>
    </mxGraphModel>
  </diagram>
</mxfile>
